<?xml version="1.0" encoding="UTF-8" standalone="no"?>
<svg xmlns:dc="http://purl.org/dc/elements/1.1/" xmlns:cc="http://creativecommons.org/ns#"
    xmlns:rdf="http://www.w3.org/1999/02/22-rdf-syntax-ns#" xmlns:svg="http://www.w3.org/2000/svg"
    xmlns="http://www.w3.org/2000/svg" viewBox="0 0 800 800" height="800" width="800" xml:space="preserve" id="svg2"
    version="1.1">
    <metadata id="metadata8">
        <rdf:RDF>
            <cc:Work rdf:about="">
                <dc:format>image/svg+xml</dc:format>
                <dc:type rdf:resource="http://purl.org/dc/dcmitype/StillImage" />
            </cc:Work>
        </rdf:RDF>
    </metadata>
    <defs id="defs6">
        <clipPath id="clipPath20" clipPathUnits="userSpaceOnUse">
            <path id="path18" d="M 0,600 H 600 V 0 H 0 Z" />
        </clipPath>
    </defs>
    <g transform="matrix(1.3333333,0,0,-1.3333333,0,800)" id="g10">
        <path id="path12" style="fill:#000000;fill-opacity:1;fill-rule:nonzero;stroke:none"
            d="M 0,0 H 600 V 600 H 0 Z" />
        <g id="g14">
            <g clip-path="url(#clipPath20)" id="g16">
                <g transform="translate(260.1782,342.8965)" id="g22">
                    <path id="path24" style="fill:#25f4ee;fill-opacity:1;fill-rule:nonzero;stroke:none"
                        d="m 0,0 v 16.286 c -5.453,0.742 -10.993,1.206 -16.646,1.206 -68.117,0 -123.532,-55.417 -123.532,-123.533 0,-41.794 20.881,-78.778 52.737,-101.144 -20.56,22.073 -32.763,51.64 -32.763,84.114 C -120.204,-55.934 -66.77,-1.56 0,0" />
                </g>
                <g transform="translate(263.0947,163.0596)" id="g26">
                    <path id="path28" style="fill:#25f4ee;fill-opacity:1;fill-rule:nonzero;stroke:none"
                        d="m 0,0 c 30.391,0 55.537,24.522 56.665,54.644 l 0.256,268.587 48.708,-0.018 -0.075,0.404 c -1.024,5.526 -1.585,11.212 -1.585,17.03 H 36.854 L 36.746,71.674 C 35.617,41.554 10.828,17.379 -19.563,17.379 c -9.445,0 -18.34,2.361 -26.17,6.482 C -35.479,9.65 -18.823,0 0,0" />
                </g>
                <g transform="translate(460.4365,394.5781)" id="g30">
                    <path id="path32" style="fill:#25f4ee;fill-opacity:1;fill-rule:nonzero;stroke:none"
                        d="m 0,0 v 15.757 c -18.745,0 -36.205,5.573 -50.848,15.12 C -37.811,15.903 -20.101,4.303 0,0" />
                </g>
                <g transform="translate(409.5889,425.4551)" id="g34">
                    <path id="path36" style="fill:#fe2c55;fill-opacity:1;fill-rule:nonzero;stroke:none"
                        d="M 0,0 C -14.284,16.405 -22.963,37.813 -22.963,61.221 H -41.248 C -36.514,35.649 -21.029,13.711 0,0" />
                </g>
                <g transform="translate(243.5317,293.7852)" id="g38">
                    <path id="path40" style="fill:#fe2c55;fill-opacity:1;fill-rule:nonzero;stroke:none"
                        d="m 0,0 c -31.107,0 -56.791,-25.82 -56.791,-56.93 0,-21.662 12.664,-40.484 30.621,-49.934 -6.692,9.274 -10.684,20.619 -10.684,32.904 0,31.108 25.31,56.418 56.417,56.418 5.807,0 11.378,-0.958 16.647,-2.608 v 68.517 c -5.453,0.741 -10.993,1.206 -16.647,1.206 -0.978,0 -1.944,-0.051 -2.917,-0.074 L 16.388,49.486 16.206,-2.378 C 10.937,-0.728 5.807,0 0,0" />
                </g>
                <g transform="translate(460.4365,395.3828)" id="g42">
                    <path id="path44" style="fill:#fe2c55;fill-opacity:1;fill-rule:nonzero;stroke:none"
                        d="m 0,0 -0.312,0.061 -0.016,-51.822 c -34.8,0 -67.135,11.454 -93.458,30.348 l 0.021,-137.114 c 0,-68.118 -55.024,-123.19 -123.14,-123.19 -26.323,0 -50.73,7.96 -70.795,22.046 22.569,-24.226 54.715,-39.419 90.358,-39.419 68.116,0 123.531,55.415 123.531,123.532 v 136.392 c 26.324,-18.894 58.574,-30.027 93.374,-30.027 V -2.078 C 12.854,-2.078 6.312,-1.352 0,0" />
                </g>
                <g transform="translate(367.0635,236.8555)" id="g46">
                    <path id="path48" style="fill:#ffffff;fill-opacity:1;fill-rule:nonzero;stroke:none"
                        d="m 0,0 v 136.392 c 26.323,-18.894 58.573,-30.027 93.373,-30.027 v 52.162 C 73.272,162.831 55.563,173.625 42.525,188.6 21.496,202.311 6.319,224.249 1.585,249.821 H -47.552 L -47.66,-19.152 c -1.128,-30.121 -25.918,-54.295 -56.309,-54.295 -18.823,0 -35.479,9.301 -45.733,23.512 -17.957,9.451 -30.247,28.273 -30.247,49.935 0,31.109 25.31,56.418 56.417,56.418 5.807,0 11.377,-0.957 16.647,-2.607 v 52.618 C -173.655,104.869 -227.5,50.107 -227.5,-17.03 c 0,-32.474 12.613,-62.041 33.173,-84.114 20.065,-14.085 44.472,-22.388 70.795,-22.388 C -55.416,-123.532 0,-68.117 0,0" />
                </g>
            </g>
        </g>
    </g>
</svg>
